<svg xmlns="http://www.w3.org/2000/svg" width="40" height="40" viewBox="0 0 40 40">
  <defs>
    <style>
      .cls-1 {
        fill: none;
      }

      .cls-2 {
        fill: #fff;
      }
    </style>
  </defs>
  <g id="nav-icon-message" transform="translate(-4989 151)">
    <rect id="Rectangle_45" data-name="Rectangle 45" class="cls-1" width="40" height="40" transform="translate(4989 -151)"/>
    <path id="iconfinder_envelope-o_1608676" class="cls-2" d="M18.909,270.182v-8.727a6.653,6.653,0,0,1-.784.75q-3.045,2.341-4.841,3.841-.58.489-.943.761a5.25,5.25,0,0,1-.983.551,2.851,2.851,0,0,1-1.165.278H10.17a2.851,2.851,0,0,1-1.165-.278,5.25,5.25,0,0,1-.983-.551q-.364-.273-.943-.761-1.8-1.5-4.841-3.841a6.653,6.653,0,0,1-.784-.75v8.727a.369.369,0,0,0,.364.364H18.545a.369.369,0,0,0,.364-.364Zm0-11.943v-.278l-.006-.148-.034-.142-.062-.1-.1-.085-.159-.028H1.818a.369.369,0,0,0-.364.364,3.978,3.978,0,0,0,1.67,3.227q2.193,1.727,4.557,3.6l.4.335q.33.278.523.426t.506.358a3.027,3.027,0,0,0,.574.313,1.347,1.347,0,0,0,.489.1h.023a1.347,1.347,0,0,0,.489-.1,3.027,3.027,0,0,0,.574-.312q.312-.21.506-.358t.523-.426l.4-.335q2.364-1.875,4.557-3.6a5.342,5.342,0,0,0,1.142-1.312A2.838,2.838,0,0,0,18.909,258.239Zm1.455-.42v12.364A1.823,1.823,0,0,1,18.545,272H1.818a1.751,1.751,0,0,1-1.284-.534A1.751,1.751,0,0,1,0,270.182V257.818a1.751,1.751,0,0,1,.534-1.284A1.751,1.751,0,0,1,1.818,256H18.545a1.823,1.823,0,0,1,1.818,1.818Z" transform="translate(4998.967 -395)"/>
  </g>
</svg>
