<svg xmlns="http://www.w3.org/2000/svg" width="40" height="40" viewBox="0 0 40 40">
  <defs>
    <style>
      .cls-1 {
        fill: none;
      }

      .cls-2 {
        fill: #fff;
      }
    </style>
  </defs>
  <g id="nav-icon-help" transform="translate(-5199 151)">
    <rect id="Rectangle_56" data-name="Rectangle 56" class="cls-1" width="40" height="40" transform="translate(5199 -151)"/>
    <g id="iconfinder_icon-help-circled_211674" transform="translate(5179 -171)">
      <path id="Path_1134" data-name="Path 1134" class="cls-2" d="M40,32a8,8,0,1,0,8,8A8,8,0,0,0,40,32Zm.721,11.668a1.065,1.065,0,0,1-2.129-.064,1.065,1.065,0,0,1,2.129.064Zm1.739-4.546a5.165,5.165,0,0,1-.907.811l-.468.321a1.238,1.238,0,0,0-.446.618,3.532,3.532,0,0,0-.075.668.146.146,0,0,1-.161.139h-1.4c-.146,0-.164-.086-.161-.129a2.925,2.925,0,0,1,.354-1.475,4.689,4.689,0,0,1,1.268-1.086,1.477,1.477,0,0,0,.339-.346,1.239,1.239,0,0,0,.286-.711,1.263,1.263,0,0,0-.261-.814,1.031,1.031,0,0,0-.921-.407,1.008,1.008,0,0,0-.907.529,1.744,1.744,0,0,0-.157.975H37.107a2.694,2.694,0,0,1,.989-2.446,2.968,2.968,0,0,1,1.707-.446,3.446,3.446,0,0,1,2.211.636,2.212,2.212,0,0,1,.879,1.879A2.147,2.147,0,0,1,42.461,39.121Z"/>
    </g>
  </g>
</svg>
